<svg xmlns="http://www.w3.org/2000/svg" fill-rule="evenodd" viewBox="0 0 100 100">
    <path d="M51.651 52.942c-18.811 0-34.115 15.303-34.115 34.114a1.5 1.5 0 0 0 1.5 1.5h65.223a1.5 1.5 0 0 0 1.5-1.5c-.001-18.811-15.301-34.114-34.108-34.114zm18.238 32.614H33.771V61.612a31.081 31.081 0 0 1 7.658-3.941v12.937a1.5 1.5 0 0 0 1.5 1.5h17.525a1.5 1.5 0 0 0 1.5-1.5V57.699a31.04 31.04 0 0 1 7.96 4.188 1.507 1.507 0 0 0-.026.253v23.416h.001zM58.954 56.813v12.294H44.429V56.794a31.066 31.066 0 0 1 14.525.019zm-28.183 7.204v21.539h-10.2c.407-8.526 4.266-16.156 10.2-21.539zm42.118 21.539V64.35c5.727 5.362 9.436 12.856 9.833 21.206h-9.833zm-21.81-35.998c10.844 0 19.666-8.819 19.666-19.658 0-10.844-8.822-19.666-19.666-19.666-10.845 0-19.667 8.822-19.667 19.666-.001 10.84 8.822 19.658 19.667 19.658zm0-36.324c7.01 0 13.012 4.357 15.469 10.5-2.642-1.182-6.967-3.435-9.736-4.944a1.504 1.504 0 0 0-1.359-.039c-.067.032-6.738 3.187-11.071 4.993l-.412.172c-3.228 1.349-5.32 2.22-9.225 2.669 1.541-7.606 8.279-13.351 16.334-13.351zM34.425 29.637c4.759-.47 7.167-1.475 10.702-2.953l.41-.171c3.569-1.488 8.675-3.865 10.511-4.726 2.282 1.23 9.031 4.815 11.478 5.54.131.841.219 1.695.219 2.572 0 9.186-7.476 16.658-16.666 16.658-9.19 0-16.667-7.473-16.667-16.658-.001-.087.011-.173.013-.262z"/>
</svg>
