<svg xmlns="http://www.w3.org/2000/svg" fill-rule="evenodd" viewBox="0 0 100 100">
    <path d="M85.82 13.457a1.503 1.503 0 0 0-1.3-.26l-22.392 5.96a1.5 1.5 0 0 0-1.114 1.45v45.316c-2.109-2.325-5.143-3.797-8.521-3.797-6.353 0-11.522 5.171-11.522 11.528 0 6.353 5.169 11.521 11.522 11.521s11.521-5.168 11.521-11.521V33.281l21.279-5.685a1.5 1.5 0 0 0 1.113-1.449V14.646a1.5 1.5 0 0 0-.586-1.189zM52.493 82.175c-4.699 0-8.522-3.822-8.522-8.521 0-4.702 3.823-8.528 8.522-8.528s8.521 3.826 8.521 8.528c0 4.699-3.822 8.521-8.521 8.521zm30.913-57.179-19.392 5.18v-8.417l19.392-5.162v8.399zM50.753 41.664a9.98 9.98 0 0 0 1.604-5.398c0-5.548-4.515-10.061-10.064-10.061a10.059 10.059 0 0 0-8.558 4.78 10.06 10.06 0 0 0-8.559-4.78c-5.545 0-10.056 4.513-10.056 10.061 0 2.142.689 4.205 2.028 6.01l16.588 20.719 16.926-21.207.091-.124zm-2.485-1.683-14.535 18.21-14.208-17.745c-.918-1.24-1.404-2.686-1.404-4.18 0-3.894 3.165-7.061 7.056-7.061 3.893 0 7.059 3.167 7.059 7.061h3c0-3.894 3.166-7.061 7.058-7.061 3.896 0 7.064 3.167 7.064 7.061a6.995 6.995 0 0 1-1.09 3.715z"/>
</svg>
